<svg xmlns="http://www.w3.org/2000/svg"  viewBox="0 0 64 64" width="64px" height="64px"><g data-name="15-cat demon"><path fill="#7e1ccf" d="M21.49,44a1.581,1.581,0,0,1-.38,1.03L19.1,47.37A1.975,1.975,0,0,0,19,48a32.167,32.167,0,0,0-7,4V46L7,49V41L4,43.5V39a9,9,0,0,1,9-9h1c-2,0-3,2-3,5s3,4.94,8,5a1.975,1.975,0,0,0,.1.63l2.01,2.34A1.581,1.581,0,0,1,21.49,44Z"/><path fill="#7e1ccf" d="M42.51,44a1.581,1.581,0,0,1,.38-1.03l2.01-2.34A1.975,1.975,0,0,0,45,40c5-.06,8-2,8-5s-1-5-3-5h1a9,9,0,0,1,9,9v4.5L57,41v8l-5-3v6a32.167,32.167,0,0,0-7-4,1.975,1.975,0,0,0-.1-.63l-2.01-2.34A1.581,1.581,0,0,1,42.51,44Z"/><path fill="#ff6ef2" d="M16.99,27.24a2.26,2.26,0,0,1,.01.26A2.5,2.5,0,0,1,14.5,30H13a9,9,0,0,0-9,9v4.5L1,46V38A13,13,0,0,1,14,25h.5A2.5,2.5,0,0,1,16.99,27.24Z"/><path fill="#ff6ef2" d="M63,38v8l-3-2.5V39a9,9,0,0,0-9-9H49.5A2.5,2.5,0,0,1,47,27.5a2.734,2.734,0,0,1,.05-.5,2.5,2.5,0,0,1,2.45-2H50A13,13,0,0,1,63,38Z"/><path fill="#de5b01" d="M39.16,16.68A5.963,5.963,0,0,1,41,21H23a5.944,5.944,0,0,1,1.76-4.24l.08-.08a6.18,6.18,0,0,1,1.33-.98A6.079,6.079,0,0,1,29,15h6a5.857,5.857,0,0,1,3,.81A5.5,5.5,0,0,1,39.16,16.68Z"/><path fill="#ff802b" d="M41,1,38,6v9.81A5.857,5.857,0,0,0,35,15H29a6.079,6.079,0,0,0-2.83.7L33,4Z"/><path fill="#6817ab" d="M29.68,55.28,32,63H27l-2.95-5.16a2.007,2.007,0,0,1,.84-2.79l1.98-.99A2,2,0,0,1,29.68,55.28Z"/><path fill="#6817ab" d="M39.11,55.05a2.007,2.007,0,0,1,.84,2.79L37,63H32l2.32-7.72a2,2,0,0,1,2.81-1.22Z"/><path fill="#4f1282" d="M44,57v6H37l2.95-5.16a2.007,2.007,0,0,0-.84-2.79l-1.98-.99a2,2,0,0,0-2.81,1.22L32,63l-2.32-7.72a2,2,0,0,0-2.81-1.22l-1.98.99a2.007,2.007,0,0,0-.84,2.79L27,63H20V57a11.93,11.93,0,0,1,2.25-7h1.29a2,2,0,0,0,1.06-.3L29,47h6l4.4,2.7a2,2,0,0,0,1.06.3h1.29A12,12,0,0,1,44,57Z"/><path fill="#6817ab" d="M23,21H41a5.963,5.963,0,0,0-1.84-4.32L45,5V28a13.3,13.3,0,0,1-.26,2.62,13.008,13.008,0,0,1-25.46.08A13.293,13.293,0,0,1,19,28V5l5.84,11.68-.08.08A5.944,5.944,0,0,0,23,21Z"/><polygon fill="#b83ad6" points="35 44 35 47 29 47 29 44 29 41 35 41 35 44"/><path fill="#de5b01" d="M44.9,47.37A2.005,2.005,0,0,1,43.04,50H40.46a2,2,0,0,1-1.06-.3L35,47V44h7.51a1.581,1.581,0,0,0,.38,1.03Z"/><path fill="#de5b01" d="M29,44v3l-4.4,2.7a2,2,0,0,1-1.06.3H20.96a2.005,2.005,0,0,1-1.86-2.63l2.01-2.34A1.581,1.581,0,0,0,21.49,44H29Z"/><path fill="#f86a00" d="M29,41v3H21.49a1.581,1.581,0,0,0-.38-1.03L19.1,40.63A2.005,2.005,0,0,1,20.96,38h2.58a2,2,0,0,1,1.06.3Z"/><path fill="#f86a00" d="M45,40a1.975,1.975,0,0,1-.1.63l-2.01,2.34A1.581,1.581,0,0,0,42.51,44H35V41l4.4-2.7a2,2,0,0,1,1.06-.3h2.58A1.984,1.984,0,0,1,45,40Z"/><path fill="#4f1282" d="M32,41h3l1.091-.669A12.968,12.968,0,0,1,32,41Z"/><path fill="#4f1282" d="M29,41h3a12.942,12.942,0,0,1-4.087-.667Z"/><path fill="#ff802b" d="M24.84,18.68a6.18,6.18,0,0,1,1.33-.98A6.079,6.079,0,0,1,29,17h6a5.857,5.857,0,0,1,3,.81,5.5,5.5,0,0,1,1.16.87A5.957,5.957,0,0,1,40.652,21H41a5.963,5.963,0,0,0-1.84-4.32A5.5,5.5,0,0,0,38,15.81,5.857,5.857,0,0,0,35,15H29a6.079,6.079,0,0,0-2.83.7,6.18,6.18,0,0,0-1.33.98l-.08.08A5.944,5.944,0,0,0,23,21h.348a5.936,5.936,0,0,1,1.412-2.24Z"/><path fill="#360063" d="M22.54,53a2,2,0,0,0,1.06-.3L28,50h6l4.4,2.7a2,2,0,0,0,1.06.3h2.58a1.9,1.9,0,0,0,1.13-.369A12.085,12.085,0,0,0,41.75,50H40.46a2,2,0,0,1-1.06-.3L35,47H29l-4.4,2.7a2,2,0,0,1-1.06.3H22.25a11.9,11.9,0,0,0-1.561,3H22.54Z"/><polygon fill="#ffcd45" points="41 1 33 4 31.9 5.885 39.92 2.8 41 1"/><path fill="#de5b01" d="M35.858,6.5l-1.029,3.6A4,4,0,0,1,30.983,13H28l-.315.105L26.17,15.7A6.079,6.079,0,0,1,29,15h6a5.857,5.857,0,0,1,3,.81V6H36.083A1.962,1.962,0,0,0,35.858,6.5Z"/><path fill="#f86a00" d="M36.366,5.634A2,2,0,0,0,36.083,6H38l3-5Z"/><path fill="#4f1282" d="M23,29a9,9,0,0,0,18,0V21H23Z"/><path fill="#360063" d="M37,25H27a4,4,0,0,1-4-4H41A4,4,0,0,1,37,25Z"/><path fill="#360063" d="M23,21a5.944,5.944,0,0,1,1.76-4.24l.08-.08L21,9V19A2,2,0,0,0,23,21Z"/><path fill="#360063" d="M41,21a2,2,0,0,0,2-2V9l-3.84,7.68A5.963,5.963,0,0,1,41,21Z"/><path fill="#922eaa" d="M29,47l.544-1.632A2,2,0,0,1,31.442,44h1.116a2,2,0,0,1,1.9,1.368L35,47V41H29Z"/><path fill="#b04901" d="M38,46V44H35v3l4.4,2.7a2,2,0,0,0,1.06.3H42A4,4,0,0,1,38,46Z"/><path fill="#b04901" d="M26,44v2a4,4,0,0,1-4,4h1.54a2,2,0,0,0,1.06-.3L29,47V44H26Z"/><path fill="#de5b01" d="M23.54,38H22a4,4,0,0,1,4,4v2h3V41l-4.4-2.7A2,2,0,0,0,23.54,38Z"/><path fill="#de5b01" d="M38,44V42a4,4,0,0,1,4-4H40.46a2,2,0,0,0-1.06.3L35,41v3h3Z"/><path fill="#7d3094" d="M34,43H30a1,1,0,0,1-1-1V41h6v1A1,1,0,0,1,34,43Z"/><path fill="#5a1494" d="M29.514,61.279l-2.552.478a1.549,1.549,0,0,1-.7-.044L27,63h5L30.977,59.6A1.905,1.905,0,0,1,29.514,61.279Z"/><path fill="#5a1494" d="M37.038,61.757l-2.552-.478A1.905,1.905,0,0,1,33.023,59.6L32,63h5l.736-1.287A1.549,1.549,0,0,1,37.038,61.757Z"/><path fill="#360063" d="M21.588,61.482,20,61.8V63h7l-2.95-5.16c-.021-.037-.032-.076-.05-.114v.815A3,3,0,0,1,21.588,61.482Z"/><path fill="#360063" d="M42.412,61.482A3,3,0,0,1,40,58.541v-.815c-.018.038-.029.077-.05.114L37,63h7V61.8Z"/><path fill="#7e1ccf" d="M10.077,35.837a9.052,9.052,0,0,1,.791-5.572A9,9,0,0,0,4,39v4.5L7,41S8.178,37.483,10.077,35.837Z"/><path fill="#4f1282" d="M19.38,40.956a16.151,16.151,0,0,1-5.736-1.184A28.242,28.242,0,0,0,12,46v6a32.167,32.167,0,0,1,7-4,1.975,1.975,0,0,1,.1-.63l2.01-2.34a1.586,1.586,0,0,0,0-2.06Z"/><path fill="#6817ab" d="M10.077,35.837C8.178,37.483,7,41,7,41v8l5-3a28.242,28.242,0,0,1,1.644-6.228A5.774,5.774,0,0,1,10.077,35.837Z"/><path fill="#400e61" d="M19,40a12.726,12.726,0,0,1-4.99-.936,4.467,4.467,0,0,1-3-3.839c0-.075-.014-.148-.014-.225,0-3,1-5,3-5H13a8.976,8.976,0,0,0-2.132.265,9.052,9.052,0,0,0-.791,5.572,5.774,5.774,0,0,0,3.567,3.935,16.151,16.151,0,0,0,5.736,1.184l-.28-.326A1.975,1.975,0,0,1,19,40Z"/><path fill="#b83ad6" d="M10.868,30.265C10.948,30.1,11,30,11,30s-.052.095-.132.265A8.976,8.976,0,0,1,13,30h1.5A2.5,2.5,0,0,0,17,27.5a2.26,2.26,0,0,0-.01-.26A2.5,2.5,0,0,0,15,25.051,3,3,0,0,1,12,28a9,9,0,0,0-9,9v7.333L4,43.5V39A9,9,0,0,1,10.868,30.265Z"/><path fill="#6817ab" d="M53.923,35.837a5.774,5.774,0,0,1-3.567,3.935A28.242,28.242,0,0,1,52,46l5,3V41S55.822,37.483,53.923,35.837Z"/><path fill="#4f1282" d="M44.62,40.956,42.89,42.97a1.586,1.586,0,0,0,0,2.06l2.01,2.34A1.975,1.975,0,0,1,45,48a32.167,32.167,0,0,1,7,4V46a28.242,28.242,0,0,0-1.644-6.228A16.151,16.151,0,0,1,44.62,40.956Z"/><path fill="#7e1ccf" d="M53.132,30.265a9.052,9.052,0,0,1,.791,5.572C55.822,37.483,57,41,57,41l3,2.5V39A9,9,0,0,0,53.132,30.265Z"/><path fill="#400e61" d="M53.132,30.265A8.976,8.976,0,0,0,51,30H50c2,0,3,2,3,5,0,.077-.01.15-.014.225a4.467,4.467,0,0,1-3,3.839A12.726,12.726,0,0,1,45,40a1.975,1.975,0,0,1-.1.63l-.28.326a16.151,16.151,0,0,0,5.736-1.184,5.774,5.774,0,0,0,3.567-3.935A9.052,9.052,0,0,0,53.132,30.265Z"/><path fill="#b83ad6" d="M52,28a3,3,0,0,1-2.995-2.947A2.5,2.5,0,0,0,47.05,27a2.734,2.734,0,0,0-.05.5A2.5,2.5,0,0,0,49.5,30H51a8.976,8.976,0,0,1,2.132.265C53.052,30.1,53,30,53,30s.052.095.132.265A9,9,0,0,1,60,39v4.5l1,.833V37A9,9,0,0,0,52,28Z"/><path fill="#63fff6" d="M28.46,27.09c.76,2.15.71,4.3-.1,4.8s-2.07-.83-2.82-2.98-.71-4.3.1-4.8S27.71,24.94,28.46,27.09Z"/><path fill="#63fff6" d="M38.36,24.11c.81.5.86,2.65.1,4.8s-2.02,3.49-2.82,2.98-.86-2.65-.1-4.8S37.56,23.6,38.36,24.11Z"/><path fill="#4dc7c0" d="M26.64,25.11a.821.821,0,0,1,.872.057c-.643-.936-1.355-1.387-1.872-1.057-.81.5-.86,2.65-.1,4.8a5.5,5.5,0,0,0,1.948,2.923,8.2,8.2,0,0,1-.948-1.923C25.78,27.76,25.83,25.61,26.64,25.11Z"/><path fill="#4dc7c0" d="M38.36,24.11c-.517-.33-1.229.121-1.872,1.057a.821.821,0,0,1,.872-.057c.81.5.86,2.65.1,4.8a8.2,8.2,0,0,1-.948,1.923A5.5,5.5,0,0,0,38.46,28.91C39.22,26.76,39.17,24.61,38.36,24.11Z"/><ellipse cx="35.682" cy="17.708" fill="#f6fafd" rx=".825" ry="1.148" transform="rotate(-45.02 35.681 17.708)"/><ellipse cx="33.427" cy="7.208" fill="#f6fafd" rx=".413" ry=".574" transform="rotate(-45.02 33.427 7.208)"/><rect width="4" height="2" x="40" y="39" fill="#ff9538" rx="1" ry="1"/><rect width="4" height="2" x="20" y="39" fill="#ff9538" rx="1" ry="1"/><rect width="2" height="2" x="18" y="18"/><rect width="2" height="2" x="37" y="11"/><path d="M36,33a1.921,1.921,0,0,0,.633-.112c1.066-.376,2.1-1.741,2.769-3.649.785-2.24.959-5.069-.514-5.983a1.746,1.746,0,0,0-1.529-.144c-1.066.376-2.1,1.741-2.769,3.649-.785,2.24-.959,5.069.514,5.983A1.684,1.684,0,0,0,36,33Zm.477-5.578a5.173,5.173,0,0,1,1.4-2.339,6.091,6.091,0,0,1-.363,3.5,5.173,5.173,0,0,1-1.4,2.339A6.091,6.091,0,0,1,36.481,27.422Z"/><path d="M26.637,23.112a1.745,1.745,0,0,0-1.529.144c-1.473.914-1.3,3.743-.514,5.983.668,1.908,1.7,3.273,2.769,3.649A1.916,1.916,0,0,0,28,33a1.688,1.688,0,0,0,.9-.256c1.473-.914,1.3-3.743.514-5.983C28.738,24.853,27.7,23.488,26.637,23.112ZM27.9,30.927a5.1,5.1,0,0,1-1.415-2.349,6.243,6.243,0,0,1-.377-3.5,5.1,5.1,0,0,1,1.415,2.349A6.243,6.243,0,0,1,27.9,30.927Z"/><path d="M33,34a1,1,0,0,0-2,0c0,1.084-1.374,2-3,2v2a5.49,5.49,0,0,0,4-1.6A5.49,5.49,0,0,0,36,38V36C34.374,36,33,35.084,33,34Z"/><path d="M42,52.413A10.9,10.9,0,0,1,43,57v5H38.723l3.145-5.5L40.132,55.5,36.42,62H33.344l2.614-8.713-1.916-.574L32,59.52l-2.042-6.807-1.916.574L30.656,62H27.58l-3.712-6.5-1.736.992L25.277,62H21V57a10.9,10.9,0,0,1,1-4.583l-1.817-.834A12.887,12.887,0,0,0,19,57v6a1,1,0,0,0,1,1H44a1,1,0,0,0,1-1V57a12.882,12.882,0,0,0-1.182-5.423Z"/><path d="M50,24h-.5a3.5,3.5,0,0,0,0,7H50c1.8,0,2,2.8,2,4,0,2.473-2.634,3.391-4.2,3.717l.408,1.958C51.887,39.908,54,37.84,54,35a9.056,9.056,0,0,0-.658-3.648A8.013,8.013,0,0,1,59,39h2A10.011,10.011,0,0,0,51,29H49.5a1.5,1.5,0,0,1,0-3H50A12.013,12.013,0,0,1,62,38v5.865l-4.36-3.634A1,1,0,0,0,56,41v6.233l-3.485-2.09A1,1,0,0,0,51,46v4.077a29.177,29.177,0,0,0-5.11-2.812c-.017-.069-.019-.14-.041-.207a1,1,0,0,0-.193-.343l-2.01-2.336a.582.582,0,0,1,0-.758l2.01-2.336a1,1,0,0,0,.193-.343,3.044,3.044,0,0,0-.427-2.722A2.912,2.912,0,0,0,43.043,37h-.335A13.929,13.929,0,0,0,46,28V5a1,1,0,0,0-1.9-.447L38.813,15.137A6.96,6.96,0,0,0,35,14H29c-.235,0-.467.013-.7.035l5.381-9.223,4.983-1.87L37.143,5.485A1,1,0,0,0,37,6V9h2V6.277l2.857-4.762A1,1,0,0,0,40.649.063l-8,3a1,1,0,0,0-.513.433l-6.7,11.492c-.083.049-.166.1-.246.149L19.9,4.553A1,1,0,0,0,18,5V16h2V9.236l3.637,7.274A6.966,6.966,0,0,0,22,21a1,1,0,0,0,1,1H41a1,1,0,0,0,1-1,6.966,6.966,0,0,0-1.637-4.49L44,9.236V28a11.968,11.968,0,0,1-4.17,9.074,3.016,3.016,0,0,0-.951.372l-3.231,1.983a11.939,11.939,0,0,1-7.3,0l-3.231-1.983a3.016,3.016,0,0,0-.951-.372A11.968,11.968,0,0,1,20,28V22H18v6a13.929,13.929,0,0,0,3.292,9h-.335a2.912,2.912,0,0,0-2.379,1.22,3.044,3.044,0,0,0-.427,2.722,1,1,0,0,0,.193.343l2.01,2.336a.582.582,0,0,1,0,.758l-2.01,2.336a1,1,0,0,0-.193.343c-.022.067-.024.138-.041.207A29.177,29.177,0,0,0,13,50.077V46a1,1,0,0,0-1.515-.857L8,47.233V41a1,1,0,0,0-1.64-.769L2,43.865V38A12.013,12.013,0,0,1,14,26h.5a1.5,1.5,0,0,1,0,3H13A10.011,10.011,0,0,0,3,39H5a8.013,8.013,0,0,1,5.658-7.648A9.056,9.056,0,0,0,10,35c0,2.84,2.113,4.908,5.8,5.676l.407-1.959C14.634,38.391,12,37.473,12,35c0-1.2.2-4,2-4h.5a3.5,3.5,0,0,0,0-7H14A14.015,14.015,0,0,0,0,38v8a1,1,0,0,0,1.64.769L6,43.135V49a1,1,0,0,0,1.515.857L11,47.767V52a1,1,0,0,0,1.6.8,35.882,35.882,0,0,1,5.73-3.464,2.974,2.974,0,0,0,.248.444A2.912,2.912,0,0,0,20.957,51H23.54a3.023,3.023,0,0,0,1.581-.446L29.283,48h5.434l4.162,2.554A3.023,3.023,0,0,0,40.46,51h2.583a2.912,2.912,0,0,0,2.379-1.22,2.974,2.974,0,0,0,.248-.444A35.882,35.882,0,0,1,51.4,52.8a1,1,0,0,0,.6.2,1,1,0,0,0,1-1V47.767l3.485,2.09A1,1,0,0,0,58,49V43.135l4.36,3.634A1,1,0,0,0,64,46V38A14.015,14.015,0,0,0,50,24ZM24.1,20a5,5,0,0,1,2.759-3.5l0,0,0-.006A4.947,4.947,0,0,1,29,16h6a5.008,5.008,0,0,1,4.9,4ZM43.8,39.4a1.017,1.017,0,0,1,.183.763L42.13,42.316a2.585,2.585,0,0,0-.417.684H36V41.56l.535-.329A13.973,13.973,0,0,0,40.632,39h2.411A.935.935,0,0,1,43.8,39.4Zm-23.791.763A1.017,1.017,0,0,1,20.2,39.4a.935.935,0,0,1,.761-.4h2.411a13.973,13.973,0,0,0,4.1,2.231L28,41.56V43H22.287a2.585,2.585,0,0,0-.417-.684Zm4.062,8.691A1.03,1.03,0,0,1,23.54,49H20.957a.935.935,0,0,1-.761-.4,1.017,1.017,0,0,1-.183-.763l1.857-2.158A2.585,2.585,0,0,0,22.287,45H28v1.44ZM34,46H30V42h4Zm9.8,2.6a.935.935,0,0,1-.761.4H40.46a1.03,1.03,0,0,1-.535-.151L36,46.44V45h5.713a2.585,2.585,0,0,0,.417.684l1.857,2.158A1.017,1.017,0,0,1,43.8,48.605Z"/></g></svg>