<svg xmlns="http://www.w3.org/2000/svg" viewBox="0 0 3000 3000" width="3000" height="3000"><g transform="translate(1453.2 438.0) rotate(0.0 657.6 111.0) scale(1.3701441505825092 1.3875)"><svg width="959.899" height="160" viewBox="0 0 959.899 160"><path d="M0 0h32v32H0zm0 32h32v32H0zm0 32h32v32H0zm0 32h32v32H0zm0 32h32v32H0zm32 0h32v32H32z" fill="#ff5d54"/><path d="M64 128h32v32H64zM128.224 0h32v32h-32z" fill="#f24444"/><g fill="#ff5d54"><path d="M128.224 32h32v32h-32zm0 32h32v32h-32zm0 32h32v32h-32zm0 32h32v32h-32zm32 0h32v32h-32zm32 0h32v32h-32zm-32-64h32v32h-32zm-.248-64h32v32h-32zm32 0h32v32h-32zm63.976 0h32v32h-32zm0 32h32v32h-32zm0 32h32v32h-32zm0 32h32v32h-32zm64-96h32v32h-32z"/></g><path d="M287.952 128h32v32h-32z" fill="#f24444"/><path d="M319.952 32h32v32h-32zm0 32h32v32h-32zm0 32h32v32h-32zm64.125-96h32v32h-32zm0 32h32v32h-32zm0 32h32v32h-32zm0 32h32v32h-32zm0 32h32v32h-32zm32 0h32v32h-32z" fill="#ff5d54"/><path d="M448.077 128h32v32h-32z" fill="#f24444"/><path d="M416.077 64h32v32h-32zm0-64h32v32h-32zm32 0h32v32h-32z" fill="#ff5d54"/><path d="M511.819 0h32v32h-32z" fill="#f24444"/><path d="M511.819 32h32v32h-32zm0 32h32v32h-32zm0 32h32v32h-32zm0 32h32v32h-32zm32 0h32v32h-32zm32 0h32v32h-32zM672.354 0h32v32h-32zm0 32h32v32h-32zm0 32h32v32h-32zm0 32h32v32h-32z" fill="#ff5d54"/><path d="M672.354 128h32v32h-32z" fill="#f24444"/><path d="M704.354 128h32v32h-32zm32 0h32v32h-32zm0-32h32v32h-32zm0-32h32v32h-32zm0-32h32v32h-32zm0-32h32v32h-32zm63.557 0h32v32h-32zm0 32h32v32h-32zm0 32h32v32h-32zm0 32h32v32h-32zm0 32h32v32h-32zm32-128h32v32h-32zm32 0h32v32h-32zm0 32h32v32h-32z" fill="#ff5d54"/><path d="M831.911 64h32v32h-32z" fill="#f24444"/><path d="M863.911 64h32v32h-32z" fill="#ff5d54"/><path d="M927.899 128h32v32h-32z" fill="#f24444"/><path d="M927.899 64h32v32h-32zm0-32h32v32h-32zm0-32h32v32h-32z" fill="#ff5d54"/></svg></g><g transform="translate(2152.7999999999997 2050.7999999999997) rotate(0.0 322.20000000000005 157.80000000000018) scale(1.368707904904112 1.3586465194369124)"><svg width="470.809" height="232.29" viewBox="0 0 470.809 232.29"><path d="M22.46 202.439s6.475 5.943 21.523 17.651c10.009 7.787 22.487 12.38 36.3 12.194l305.745-4.949c47.012-.631 84.789-38.925 84.782-85.941v-5.605a60.404 60.404 0 0 0-13.359-37.973c-11.337-14.101-34.566-29.406-34.566-29.406L46.712 103.955zm182.485-139.3 6.902 20.312-34.279-15.039L167.14 0l19.433 15.947z" fill="#a2bce1"/><path d="M451.376 119.843c-.005-33.916-27.815-61.241-61.726-60.648l-199.128 3.477L167.14 0l-38.083 63.745-42.972.75c-22.694.396-43.29 9.243-58.805 23.513C15.213 99.106-.053 119.937 0 152.737c.056 34.582 26.271 64.065 60.85 63.6l305.745-4.949c47.012-.631 84.789-38.925 84.782-85.941v-5.605z" fill="#e3edf8"/><path d="m128.119 153.849-28.408.425 3.924-29.731 28.409-.424zm56.29 14.169-28.885.432 8.012-59.934 28.772-.345z" fill="#5960ff"/><g fill="#a2bce1"><path d="m240.887 182.599-29.04.434 11.975-90.722 29.039-.434zm59.973-16.323-28.643.429 7.91-59.933 28.643-.428zm60.927-15.921-29.133.435 3.924-29.731 29.133-.435zm57.871-.866-28.514.427 3.924-29.731 28.514-.427zM23.407 170.293l7.714-58.448 40.198 28.186z"/></g></svg></g><g transform="translate(338.4 634.8) rotate(0.0 645.0 1039.1999999999998) scale(1.3697728300780878 1.3696373334247125)"><svg width="941.762" height="1517.482" viewBox="0 0 941.762 1517.482"><linearGradient id="b" gradientTransform="matrix(.90079679 -.43424088 .43424088 .90079679 -9209.298 4731.528)" gradientUnits="userSpaceOnUse" x1="10686.861" x2="10696.301" y1="689.162" y2="725.692"><stop offset="0" stop-color="#e8b1a1"/><stop offset="1" stop-color="#ffc7b5" stop-opacity="0"/></linearGradient><linearGradient id="a" gradientUnits="userSpaceOnUse" x1="886.134" x2="811.373" y1="466.834" y2="644.252"><stop offset="0" stop-color="#e8b1a1"/><stop offset="1" stop-color="#ffc7b5"/></linearGradient><linearGradient id="c" gradientTransform="matrix(-.83844236 -.54499029 .54499029 -.83844236 3351.402 17785.46)" gradientUnits="userSpaceOnUse" x1="11120.209" x2="11228.319" y1="12446.113" y2="12169.742"><stop offset="0" stop-color="#f244aa" stop-opacity="0"/><stop offset="1" stop-color="#992b6b"/></linearGradient><linearGradient id="d" gradientTransform="matrix(.99931683 -.03695766 .03695766 .99931683 -178.232 31.595)" gradientUnits="userSpaceOnUse" x1="639.662" x2="772.392" y1="1086.885" y2="1119.929"><stop offset="0" stop-color="#ff73b2"/><stop offset="1" stop-color="#ffc2ee" stop-opacity="0"/></linearGradient><linearGradient id="e" gradientTransform="matrix(.99514015 -.09846873 .09846873 .99514015 -9133.412 -3011.587)" gradientUnits="userSpaceOnUse" x1="8857.071" x2="8964.3" y1="4967.485" y2="4693.366"><stop offset="0" stop-color="#992b6b"/><stop offset="1" stop-color="#f244aa" stop-opacity="0"/></linearGradient><linearGradient id="f" gradientTransform="matrix(.68017091 -.73305357 .73305357 .68017091 -4457.658 6424.41)" gradientUnits="userSpaceOnUse" x1="7491.559" x2="7600.976" y1="-107.174" y2="-219.903"><stop offset="0" stop-color="#ffc2ee" stop-opacity="0"/><stop offset="1" stop-color="#ff73b2"/></linearGradient><linearGradient xmlns:xlink="http://www.w3.org/1999/xlink" id="g" x1="578.277" x2="571.56" xlink:href="#a" y1="437.625" y2="492.865"/><linearGradient id="h" gradientTransform="matrix(.91060433 -.41327926 .41327926 .91060433 -3906.375 4631.974)" gradientUnits="userSpaceOnUse" x1="5750.277" x2="5923.417" y1="-1675.668" y2="-1757.911"><stop offset=".252" stop-color="#635fe3"/><stop offset=".865" stop-color="#8b80fe" stop-opacity="0"/></linearGradient><linearGradient id="i" gradientTransform="matrix(.91060433 -.41327926 .41327926 .91060433 -3906.375 4631.974)" gradientUnits="userSpaceOnUse" x1="5627.888" x2="5546.605" y1="-1683.959" y2="-2012.255"><stop offset=".135" stop-color="#8b80fe" stop-opacity="0"/><stop offset=".748" stop-color="#635fe3"/></linearGradient><linearGradient id="j" gradientTransform="matrix(.99475115 .10232378 -.10232378 .99475115 457.318 -57.668)" gradientUnits="userSpaceOnUse" x1="-134.631" x2="54.892" y1="641.448" y2="177.812"><stop offset=".252" stop-color="#7a2256"/><stop offset=".669" stop-color="#f244aa" stop-opacity="0"/></linearGradient><linearGradient xmlns:xlink="http://www.w3.org/1999/xlink" id="k" gradientTransform="matrix(-.98559741 .16910868 -.16910868 -.98559741 5143.238 -488.487)" x1="4797.456" x2="4785.901" xlink:href="#b" y1="-103.763" y2="-21.256"/><linearGradient xmlns:xlink="http://www.w3.org/1999/xlink" id="l" gradientTransform="matrix(.9993792 .03523091 -.03523091 .9993792 144.452 -15.485)" x1="134.718" x2="244.471" xlink:href="#a" y1="-61.338" y2="224.607"/><path d="M715.827 555.523c-16.925-35.11-59.107-49.851-94.217-32.926s-49.851 59.108-32.926 94.217a71.76 71.76 0 0 0 1.522 2.963l-.075.038s109.484 182.153 109.511 182.21c14.995 31.107 52.368 44.167 83.475 29.172s44.168-52.368 29.172-83.475l-96.461-192.199z" fill="#ffc7b5"/><path d="m661.814 738.508 9.812 17.111 110.367-63.901z" fill="url(#b)"/><path d="m661.757 746.955 137.857-59.719-68.823-125.859c-17.595-32.176-52.405-51.064-88.971-48.274l-13.745 1.048-45.865 93.78z" fill="#8b80fe"/><path d="M697.651 753.296c-11.305 32.629 5.982 68.245 38.612 79.55 31.785 11.012 66.393-5.113 78.614-36.115l.01.005c42.716-111.631 68.435-212.822 69.653-217.646 7.815-25.737-6.044-53.263-31.681-62.145-25.469-8.824-53.288 3.876-63.243 28.609 0 0-91.382 206.061-91.964 207.742z" fill="url(#a)"/><circle cx="845.293" cy="539.476" fill="#ffc7b5" r="72.477"/><ellipse cx="553.034" cy="782.76" fill="#635fe3" rx="51.009" ry="178.264" transform="matrix(.20830433 -.97806406 .97806406 .20830433 -327.756 1160.608)"/><circle cx="556.115" cy="873.237" fill="#ffc2ee" r="160.152"/><path d="m783.757 1328.426 109.329 11.979c25.269 3.102 45.176 23.019 48.266 48.289 3.36 27.478-14.253 56.402-41.013 63.49l-218.566 61.715s-72.007 24.317-96.395-53.752c-7.107-22.752.919-48.504 6.831-62.741l191.549-68.98z" fill="#f244aa"/><path d="M592.209 1397.406s-2.93 7.475-4.209 11.49c-.868 2.722-2.982 11.033-2.982 11.033l234.377-87.598-35.637-3.905z" fill="url(#c)"/><path d="M614.353 967.858c-64.273 13.778-111.326 77.113-97.556 141.466l65.092 294.816 234.217-80.685-58.095-260.733c-14.244-66.45-77.208-109.109-143.658-94.864z" fill="#ffc2ee"/><path d="M567.947 729.564c95.995-10.308 136.183 68.265 142.755 101.687 0 0 46.845 229.294 47.309 231.472 14.18 66.464-28.227 131.846-94.691 146.026s-131.839-28.205-146.018-94.669L469.02 889.025c-12.062-51.395 9.009-149.805 98.927-159.46z" fill="#ffc2ee"/><path d="m641.785 885.561-166.662 31.91 93.948 428.958z" fill="url(#d)"/><path d="m178.489 998.437-92.84 58.967c-21.666 13.369-49.654 10.259-67.857-7.539-19.794-19.353-24.118-52.94-7.655-75.196l132.071-184.762s41.021-63.981 108.846-18.272c19.766 13.321 29.592 38.442 33.874 53.251z" fill="#f244aa"/><path d="m284.928 824.886-155.963 205.006 49.524-31.455z" fill="url(#e)"/><path d="M536.357 1147.488c-37.293 54.131-111.479 72.62-165.686 35.305l-223.926-149.401 138.098-208.229 219.995 151.182c55.964 38.556 70.076 115.18 31.52 171.144z" fill="#ffc2ee"/><path d="M575.001 741.532c85.687 44.487 74.489 129.549 61.486 161.032 0 0-86.502 219.587-87.319 221.658-24.933 63.221-96.418 94.253-159.639 69.321-63.221-24.933-94.26-96.396-69.327-159.617l84.202-214.221C422.77 770.211 494.738 699.862 575 741.532z" fill="#ffc2ee"/><path d="M707.054 818.098s-4.213-14.915-16.836-33.197c-7.115-10.304-15.627-20.013-23.369-27.365-9.477-8.999-17.563-14.566-17.563-14.566s-31.258-20.35-78.156-26.454c-33.785-4.397-81.317 10.891-81.317 10.891s-29.044 12.359-52.228 37.735c-19.622 21.478-30.618 48.316-30.618 48.316s72.371-30.64 148.774-32.021c84.28-1.524 151.314 36.659 151.314 36.659z" fill="url(#f)"/><path d="m517.815 515.39 2.426-92.312 109.636 2.286-1.113 84.861c-.054 24.399-12.033 41.828-39.169 44.376-28.917 2.716-72.78-1.088-71.779-39.211z" fill="url(#g)"/><path d="m693.299 573.98-2.387 181.639 49.631-99.356z" fill="url(#h)"/><path d="m718.7 594.811 9.002 221.791s-27.234-34.729-98.016-60.983c-40.287-14.943-94.532-22.862-160.896-22.632-43.98.152-89.932 13.968-89.932 13.968l18.565-179.187s30.194 36.567 90.856 15.265c57.909-20.335 49.688-101.562 49.688-101.562l124.757 31.807L718.7 594.81z" fill="#8b80fe"/><path d="m397.423 567.768-18.565 179.187s63.787-91.941 76.039-106.629c28.787-34.51 42.16-55.818 42.16-55.818l-99.635-16.74z" fill="url(#i)"/><path d="M438.493 387.533v-.004c6.569 18.082 17.225 34.997 31.955 49.298 52.051 50.534 135.212 49.304 185.746-2.747 43.084-44.378 48.532-111.366 16.947-161.47l.049.061 9.236-7.111c6.517-5.018 7.732-14.368 2.715-20.885-5.018-6.517-14.368-7.733-20.885-2.715l-9.699 7.467.046.058c-.385-.384-.764-.771-1.156-1.151-52.051-50.534-135.212-49.304-185.746 2.747-16.742 17.244-27.796 37.904-33.209 59.66l4 76.793z" fill="#ffc7b5"/><path d="M434.492 310.74c-29.68-19.575-64.798-31.691-102.827-26.18-59.715 8.653-104.978 44.282-100.542 83.911 4.437 39.629 56.645 66.312 116.609 59.598 26.838-3.005 75.641-23.217 93.397-36.002z" fill="#f244aa"/><path d="M346.071 406.887c-52.715 11.594-82.711 4.423-92.262-.651 21.278 15.533 42.579 21.705 77.941 22.755 48.463 1.439 108.549-36.338 108.549-36.338l8.47-40.617s-47.488 42.708-102.698 54.851z" fill="url(#j)"/><path d="M432.869 310.466c.01.038.046.064.04.105-8.662 50.763 6.935 80.972 6.935 80.972s5.055 13.173 17.639 30.917c11.825 16.675 30.881 28.956 30.881 28.956s27.51-6.73 37.282-42.455c8.971-32.796-12.309-64.684-16.054-85.912-12.131-68.766 36.676-110.891 36.676-110.891s-37.82.278-75.959 36.11c-30.677 28.821-37.321 62.229-37.44 62.197z" fill="#f244aa"/><path d="M659.098 296.265c-5.823-1.367-14.933.666-24.204-1.165-8.414-1.661-14.481-7.915-19.724-9.145-7.934-1.862-15.875 3.06-17.737 10.994s6.11 21.101 30.975 26.937c24.832 5.828 39.823-1.949 41.685-9.883s-3.06-15.875-10.994-17.737z" fill="#fff"/><path d="M389.629 534.542c6.591 38.415 43.075 64.213 81.49 57.622s64.213-43.076 57.622-81.49a71.994 71.994 0 0 0-.646-3.267l.083-.016s-33.185-151.229-59.004-218.96c-7.03-18.44-22.613-27.722-25.878-29.652-12.308-7.273-27.162-10.386-42.357-7.779-34.035 5.84-56.892 38.164-51.053 72.199z" fill="#ffc7b5"/><path d="m500.871 391.725-16.198-56.374s-19.724 21.901-44.027 31.685c-27.741 11.168-78.917 18.521-78.917 18.521l9.921 51.186 129.222-45.018z" fill="url(#k)"/><path d="M508.75 371.922 357.231 423.42l28.301 117.504c10.999 45.67 58.296 72.546 103.16 58.621 41.673-12.935 65.709-56.455 54.464-98.616l-34.407-129.007z" fill="#8b80fe"/><path d="M350.937 328.79c9.496 33.201 41.415 51.574 74.616 42.078 32.341-9.25 54.414-41.945 46.603-74.34 0 0-69.275-213.895-71.05-218.542-8.392-25.554-35.55-40.12-61.636-32.659-25.915 7.412-41.386 33.791-35.323 59.753 0 0 46.301 222 46.79 223.71z" fill="url(#l)"/><circle cx="348.048" cy="72.492" fill="#ffc7b5" r="72.477"/></svg></g><g transform="translate(61.199999999999996 987.5999999999999) rotate(0.0 225.6 219.0) scale(1.3689818804082672 1.3711967291636014)"><svg width="329.588" height="319.429" viewBox="0 0 329.588 319.429"><path d="m114.898 313.835-39.329 5.594-25.686-120.876 36.103-5.136z" fill="#706c6d"/><path d="m69.276 289.87-30.488 4.337L0 112.015l30.488-4.337z" fill="#71a9e3"/><path d="m109.481 314.605-33.912 4.824 14.437-20.848 15.853-9.331 15.449 4.878 7.84 8.46z" fill="#828282"/><path d="m121.308 294.128 13.073-9.7 17.262 5.385-14.436 20.848-27.726 3.944z" fill="#706c6d"/><path d="M20.764 120.887 6.327 141.735 0 112.015l14.436-20.848 19.37 10.501z" fill="#3b75b3"/><path d="m67.64 133.014-30.825 4.384L24 77.205l14.436-20.849z" fill="#71a9e3"/><path d="M214.057 81.565 61.234 103.304 48.147 42.602l14.436-20.849 138.383-.904z" fill="gray"/><path d="m251.554 106.852-31.091 4.422-13.002-60.301 31.104-4.368z" fill="#71a9e3"/><path d="m251.554 106.852-6.405-29.71 30.5-4.338z" fill="#4d86c4"/><path d="m315.152 254.894-30.736 4.372-32.862-152.414 14.437-20.849z" fill="#71a9e3"/><path d="m259.695 293.237-30.28 4.307-25.975-120.835 14.436-20.848 46.805 73.571z" fill="#706c6d"/><path d="m266.643 292.277-37.228 5.267 14.437-20.848 14.775-14.461 15.507 10.177z" fill="#736e70"/><path d="m274.134 272.412 12.232-13.512 18.867 9.112-14.436 20.848-28.198 3.99z" fill="#828282"/><g fill="#b3d8ff"><path d="m67.64 133.014-30.825 4.384 14.437-20.848 30.824-4.385zm183.914-26.162-31.091 4.422 14.436-20.848 31.092-4.423zM69.276 289.87l-30.488 4.337 14.437-20.849 30.487-4.337zm245.876-34.976-24.822 3.759.936-19.157 38.322-5.451z"/></g><path d="M214.057 81.565 79.625 100.798l-3.954-18.342 152.822-21.739z" fill="gray"/><path d="m129.334 292.986-39.328 5.595-25.687-120.877 36.103-5.135z" fill="#949494"/><path d="m83.712 269.021-30.487 4.337-33.406-156.907 30.499-4.286z" fill="#91c7fe"/><path d="m151.643 289.813-30.335 4.315-26.05-120.825 30.664-4.362z" fill="gray"/><path d="m51.252 116.55-30.488 4.337-6.328-29.721 30.488-4.336z" fill="#4d86c4"/><path d="m82.076 112.165-30.824 4.385-12.816-60.194 30.639-4.492z" fill="#91c7fe"/><path d="M228.493 60.717 75.671 82.456 62.583 21.753 215.402 0z" fill="#949494"/><path d="m265.991 86.003-31.092 4.423-13.002-60.301 31.104-4.368z" fill="#91c7fe"/><path d="m296.528 81.659-30.537 4.344-6.406-29.709 30.5-4.339z" fill="#4d86c4"/><path d="m329.588 234.045-30.736 4.372-32.861-152.414 30.537-4.344z" fill="#91c7fe"/><path d="m274.131 272.389-30.279 4.307-25.976-120.835 30.204-4.297 31.037 57.019z" fill="gray"/><path d="m305.233 268.012-31.102 4.377-26.051-120.825 31.037-4.415z" fill="#949494"/></svg></g><g transform="translate(1824.0 1156.8) rotate(0.0 328.79999999999995 328.79999999999995) scale(1.36975458563674 1.3682412399062036)"><svg width="480.086" height="480.617" viewBox="0 0 480.086 480.617"><path d="m358.948 449.761-58.488.122-28.937-18.675 33.161-9.764 25.327 9.642zm32.855-31.483-28.893.06-28.936-18.675 16.035-8.324 12.857 8.263zm32.237-31.475-28.276.059-28.936-18.675 15.627-10.298 12.648 10.239zm36.707-61.188-28.999.06L402.812 307l16.886-14.004 12.113 13.943zM296.605 480.47l-143.309.147-28.937-18.675 99.544-10.895 43.765 10.748z" fill="#e09500"/><g fill="#ed9e00"><path d="M132.583 450.302H99.52l-28.936-18.675 44.012-4.015 17.464 3.895zm-53.352-36.013-6.361 3.517-26.888-17.543 32.063-6.271zm-25.776-34.37-5.541 6.917-26.686-17.929 35.163-8.017zm-21.963-72.913-3.842 18.86L0 307.839l19.716-1.981zm429.255 18.609-28.936-18.676-12.113-76.704 31.452-76.653 28.936 18.676zm-36.707 61.188-28.937-18.675-3.3-34.8L402.812 307l28.936 18.675zm-32.237 31.475-28.937-18.676-5.314-15.073 9.276-16.342 28.936 18.675zm-32.855 31.483-28.937-18.675-13.383-14.557 17.346-16.866 29.18 18.675zm-62.343 30.709-28.937-18.675-9.814-15.598 13.669-14.989 29.964 18.675z"/><path d="m453.277 154.955-31.765 3.759-4.77-32.131 13.201-34.726 28.936 18.675z"/><path d="m431.923 103.003-31.007-5.132-7.589-17.243 12.21-19.4 28.937 18.675z"/><path d="m406.509 73.669-31.001-3.364-10.614-14.469 15.587-24.964 28.936 18.675zm-54.267-34.682-31.198-.47-7.328-15.629L325.901 0l28.937 18.675z"/></g><path d="m182.575.299-3.908 30.993-57.614.12-3.836 30.416-28.564.06-3.87 30.688-28.716.06-7.791 61.786-28.937.06L0 307.839l28.937-.06-7.709 61.128 28.716-.06-3.962 31.416 28.564-.06-3.962 31.424 57.613-.12-3.838 30.435 143.309-.147 3.855-30.587 58.488-.122 3.963-31.423 28.892-.061 3.962-31.415 28.275-.059L402.812 307l28.999-.061 19.339-153.357-28.999.061 7.792-61.786-28.276.058 3.87-30.687-28.892.06 3.836-30.416-58.488.121L325.901 0z" fill="#fbbd14"/><path d="m178.667 31.292-3.836 30.416-57.614.12-3.869 30.688-28.565.06-7.791 61.786-28.716.06-19.339 153.357 28.715-.06-7.708 61.128 28.564-.059-3.962 31.415 57.614-.12-3.963 31.424 143.326-.299 3.963-31.424 58.488-.121 3.962-31.416 28.892-.06 7.708-61.128 28.276-.059 19.339-153.357-28.275.059 7.791-61.787-28.892.061 3.87-30.688-58.488.122 3.836-30.417z" fill="#fbf314"/><path d="m241.236 214.76-28.425.059 7.662-60.756 28.424-.059zm-11.678 92.601-28.424.059 7.741-61.391 28.425-.059z" fill="#fbbd14"/><path d="m220.473 154.063 3.921-31.094-86.44.18-27.107 214.95 86.441-.18 3.846-30.499-57.303.118 7.741-61.389 57.303-.12 3.936-31.21-57.303.12 7.662-60.757zm118.644-31.333-28.7.059-3.921 31.095-28.604.059-3.918 31.067 28.604-.06-19.268 152.79 28.701-.06z" fill="#fbbd14"/></svg></g><g transform="translate(2806.7999999999997 285.59999999999997) rotate(0.0 66.0 66.60000000000002) scale(1.375028646430134 1.3870087677280967)"><svg width="95.998" height="96.034" viewBox="0 0 95.998 96.034"><path d="M32 32.012H0v-32h32z" fill="#aee600"/><path d="M63.997 64.012h-32v-32h32z" fill="#70c200"/><g fill="#aee600"><path d="M95.999 32h-32V0h32zM32.026 96.034h-32v-32h32zm63.973 0h-32v-32h32z"/></g></svg></g><g transform="translate(1527.6 1960.8) rotate(0.0 66.0 65.99999999999989) scale(1.375 1.3749999999999976)"><svg width="96" height="96" viewBox="0 0 96 96"><g fill="#91C7FE"><path d="M32 0h32v32H32zM0 32h32v32H0zm64 0h32v32H64zM32 64h32v32H32z"/></g></svg></g><g transform="translate(2725.2 1220.3999999999999) rotate(0.0 66.60000000000014 66.60000000000002) scale(1.3875000000000028 1.3875000000000004)"><svg width="96" height="96" viewBox="0 0 96 96"><g fill="#FFC2EE"><path d="M32 0h32v32H32zM0 32h32v32H0zm64 0h32v32H64zM32 64h32v32H32z"/></g></svg></g><g transform="translate(1112.3999999999999 337.2) rotate(0.0 87.60000000000002 66.6) scale(1.3698201720093826 1.3861715855638346)"><svg width="127.9" height="96.092" viewBox="0 0 127.9 96.092"><g fill="#fbf314"><path d="M95.9 64.092h32v32h-32z"/><path d="M64.017 32.106h32v32h-32zm-32.01 0h32v32h-32zM0 0h32v32H0z"/></g></svg></g><g transform="translate(1573.2 958.8) rotate(0.0 88.19999999999993 42.60000000000002) scale(1.3780281073986975 1.331333208325521)"><svg width="128.009" height="63.996" viewBox="0 0 128.009 63.996"><g fill="#967afe"><path d="M96.009 31.996h32v32h-32z"/><path d="M64.011 31.996h32v32h-32zM31.993 0h32v32h-32z"/></g><path d="M0 .003h32v32H0z" fill="#b296fe"/></svg></g></svg>